#N canvas 1350 -887 606 386 12;
#X obj 238 197 line~;
#X obj 145 152 pack 1 \$1;
#X obj 237 162 pack 0 \$2;
#X obj 241 132 del \$1;
#X obj 103 41 inlet;
#X obj 203 43 inlet;
#X obj 308 42 inlet;
#X obj 238 243 outlet~;
#X text 103 13 trig;
#X text 204 12 attack time;
#X text 312 9 decay time;
#X connect 0 0 7 0;
#X connect 1 0 0 0;
#X connect 2 0 0 0;
#X connect 3 0 2 0;
#X connect 4 0 3 0;
#X connect 4 0 1 0;
#X connect 5 0 3 1;
#X connect 5 0 1 1;
#X connect 6 0 2 1;
