#N canvas 1014 -716 450 300 12;
#X text 223 10 EITHER/OR;
#X obj 72 42 inlet;
#X obj 72 81 random 2;
#X obj 72 116 select 0 1;
#X obj 72 152 outlet;
#X obj 126 152 outlet;
#X connect 1 0 2 0;
#X connect 2 0 3 0;
#X connect 3 0 4 0;
#X connect 3 1 5 0;
