#N canvas 1373 -817 809 569 12;
#X obj 394 298 phasor~ 110;
#X obj 270 217 *~;
#X obj 270 174 osc~ 200;
#X obj 258 249 +~;
#X obj 269 144 *~;
#X obj 123 60 inlet;
#X text 99 27 frequency;
#X text 346 15 FM ratio;
#X text 452 91 FM depth;
#X text 576 143 cutoff;
#X obj 457 409 outlet~;
#X obj 582 184 inlet~;
#X obj 451 368 vcf~ 1;
#X msg 487 218 2000;
#X obj 486 259 sig~;
#X obj 483 174 loadbang;
#X obj 364 40 inlet;
#X obj 457 116 inlet;
#X connect 0 0 12 0;
#X connect 1 0 3 1;
#X connect 2 0 1 0;
#X connect 3 0 0 0;
#X connect 4 0 2 0;
#X connect 5 0 4 0;
#X connect 5 0 3 0;
#X connect 11 0 12 1;
#X connect 12 1 10 0;
#X connect 13 0 14 0;
#X connect 14 0 12 1;
#X connect 15 0 13 0;
#X connect 16 0 4 1;
#X connect 17 0 1 1;
