#N canvas 1309 -751 686 584 12;
#X obj 284 221 *~;
#X obj 55 73 osc~ \$1;
#X obj 224 8 noise~;
#X obj 116 219 +~;
#X obj 244 264 +~;
#X obj 505 63 inlet;
#X obj 249 361 outlet~;
#X text 499 31 trig;
#X obj 225 161 *~;
#X obj 226 75 lop~ \$1;
#X obj 141 152 vline~;
#X msg 141 123 1 \, 0 1;
#X obj 515 167 ad_env 2 \$2;
#X obj 55 106 *~ 0.6;
#X obj 225 109 *~ 0.2;
#X obj 142 180 *~ 0.2;
#X obj 245 320 lop~ 18000;
#X obj 374 127 expr \$2*0.6;
#X obj 266 140 ad_env 0 \$2;
#X connect 0 0 4 1;
#X connect 1 0 13 0;
#X connect 2 0 9 0;
#X connect 3 0 0 0;
#X connect 4 0 16 0;
#X connect 5 0 11 0;
#X connect 5 0 12 0;
#X connect 5 0 17 0;
#X connect 5 0 18 0;
#X connect 8 0 4 0;
#X connect 9 0 14 0;
#X connect 10 0 15 0;
#X connect 11 0 10 0;
#X connect 12 0 0 1;
#X connect 13 0 3 0;
#X connect 14 0 8 0;
#X connect 15 0 3 1;
#X connect 16 0 6 0;
#X connect 17 0 18 2;
#X connect 18 0 8 1;
