#N canvas 768 -1024 512 391 12;
#X obj 148 51 sequencer;
#X obj 148 31 tgl 15 0 empty playing empty 17 7 0 10 -262144 -1 -1
1 1;
#X obj 31 28 output;
#X obj 208 82 bng 15 250 50 0 empty empty empty 17 7 0 10 -262144 -1
-1;
#X obj 149 81 bng 15 250 50 0 empty empty empty 17 7 0 10 -262144 -1
-1;
#X obj 31 77 init;
#X obj 155 122 drums;
#X obj 269 51 synth;
#X obj 21 165 states;
#X connect 0 0 4 0;
#X connect 0 1 3 0;
#X connect 1 0 0 0;
#X connect 3 0 6 1;
#X connect 4 0 6 0;
