#N canvas 305 250 711 605 24;
#X text 42 74 Levy kanal;
#X text 218 76 Pravy kanal;
#X obj 72 256 *~;
#X obj 251 257 *~;
#X obj 161 347 dac~;
#X obj 448 125 r mainVolume;
#X floatatom 462 210 5 0 0 0 - - -;
#X obj 74 122 catch~ ML;
#X obj 244 122 catch~ MR;
#X msg 428 378 \; pd dsp \$1;
#X obj 429 320 r dspOn;
#X connect 2 0 4 0;
#X connect 3 0 4 1;
#X connect 5 0 2 1;
#X connect 5 0 3 1;
#X connect 5 0 6 0;
#X connect 7 0 2 0;
#X connect 8 0 3 0;
#X connect 10 0 9 0;
