#N canvas 1309 -751 686 584 12;
#X obj 284 221 *~;
#X obj 55 73 osc~ \$1;
#X obj 126 73 osc~;
#X obj 126 43 expr \$1*1.8;
#X obj 126 15 loadbang;
#X obj 224 8 noise~;
#X obj 225 41 hip~ 3000;
#X obj 94 145 +~;
#X obj 244 264 +~;
#X obj 514 82 inlet;
#X obj 515 167 ad_env 0 \$2;
#X obj 249 361 outlet~;
#X text 508 50 trig;
#X obj 55 106 *~ 0.3;
#X obj 125 104 *~ 0.2;
#X obj 225 109 *~ 0.5;
#X obj 245 320 lop~ 15000;
#X obj 266 140 ad_env 0 \$2;
#X obj 225 161 *~;
#X obj 316 89 expr \$2*0.75;
#X obj 226 75 lop~ 5500;
#X connect 0 0 8 1;
#X connect 1 0 13 0;
#X connect 2 0 14 0;
#X connect 3 0 2 0;
#X connect 4 0 3 0;
#X connect 5 0 6 0;
#X connect 6 0 20 0;
#X connect 7 0 0 0;
#X connect 8 0 16 0;
#X connect 9 0 10 0;
#X connect 9 0 17 0;
#X connect 9 0 19 0;
#X connect 10 0 0 1;
#X connect 13 0 7 0;
#X connect 14 0 7 1;
#X connect 15 0 18 0;
#X connect 16 0 11 0;
#X connect 17 0 18 1;
#X connect 18 0 8 0;
#X connect 19 0 17 2;
#X connect 20 0 15 0;
