#N canvas 1041 -619 450 300 12;
#N canvas 1464 -765 529 424 drumsOnly 0;
#X msg 38 110 1, f 4;
#X msg 152 103 0;
#X obj 61 66 route 0;
#X obj 36 144 s drumsOn;
#X msg 86 109 0, f 4;
#X obj 112 142 s synthOn;
#X obj 61 27 r stateNum;
#X connect 0 0 3 0;
#X connect 2 0 0 0;
#X connect 2 0 4 0;
#X connect 2 1 1 0;
#X connect 4 0 5 0;
#X connect 6 0 2 0;
#X restore 35 24 pd drumsOnly;
#N canvas 1154 -532 450 300 drumsAndSynth 0;
#X msg 38 110 1, f 4;
#X msg 150 103 0;
#X obj 27 144 s drumsOn;
#X obj 112 142 s synthOn;
#X obj 61 27 r stateNum;
#X obj 61 66 route 1;
#X connect 0 0 2 0;
#X connect 0 0 3 0;
#X connect 4 0 5 0;
#X connect 5 0 0 0;
#X connect 5 1 1 0;
#X restore 36 51 pd drumsAndSynth;
#N canvas 1424 -789 450 300 drumsAndSynthMod 0;
#X msg 150 103 0;
#X obj 15 153 s drumsOn;
#X obj 100 151 s synthOn;
#X obj 61 27 r stateNum;
#X obj 61 66 route 2;
#X msg 38 110 1, f 4;
#X obj 192 150 synthMod;
#X connect 0 0 6 0;
#X connect 3 0 4 0;
#X connect 4 0 5 0;
#X connect 4 1 0 0;
#X connect 5 0 1 0;
#X connect 5 0 2 0;
#X connect 5 0 6 0;
#X restore 35 81 pd drumsAndSynthMod;
#N canvas 1464 -765 529 424 synthOnly 1;
#X msg 152 103 0;
#X obj 36 144 s drumsOn;
#X obj 112 142 s synthOn;
#X obj 61 27 r stateNum;
#X obj 61 66 route 3;
#X msg 86 109 1, f 4;
#X msg 38 110 0, f 4;
#X connect 3 0 4 0;
#X connect 4 0 6 0;
#X connect 4 0 5 0;
#X connect 4 1 0 0;
#X connect 5 0 2 0;
#X connect 6 0 1 0;
#X restore 39 109 pd synthOnly;
