#N canvas 1692 -644 645 580 12;
#X obj 145 292 fm_synth;
#X obj 28 42 r beatSync;
#X obj 28 88 select 0;
#X obj 210 166 ad_env 60 500;
#X obj 300 89 r bpm;
#X obj 229 329 *~;
#X obj 266 449 throw~ MR;
#X obj 182 449 throw~ ML;
#X obj 229 374 *~;
#X obj 297 352 hsl 128 15 0 1 0 0 empty synthVol empty -2 -8 0 10 -262144
-1 -1 6350 1;
#X obj 116 90 tgl 15 0 empty synthOn empty 17 7 0 10 -262144 -1 -1
1 1;
#X obj 28 117 spigot;
#X obj 290 265 catch~ cutoff;
#X obj 28 176 random 10;
#X obj 19 217 expr 80 * (1.33 ^ $i1);
#X obj 28 65 % 2;
#X obj 28 144 p_gate 40;
#X obj 297 131 expr (60000 / $f1) * 0.5;
#X obj 288 208 r fmRatio;
#X obj 290 234 r fmDepth;
#X connect 0 0 5 0;
#X connect 1 0 15 0;
#X connect 2 0 11 0;
#X connect 3 0 5 1;
#X connect 4 0 17 0;
#X connect 5 0 8 0;
#X connect 8 0 7 0;
#X connect 8 0 6 0;
#X connect 9 0 8 1;
#X connect 10 0 11 1;
#X connect 11 0 16 0;
#X connect 12 0 0 3;
#X connect 13 0 14 0;
#X connect 14 0 0 0;
#X connect 15 0 2 0;
#X connect 16 0 13 0;
#X connect 16 0 3 0;
#X connect 17 0 3 2;
#X connect 18 0 0 1;
#X connect 19 0 0 2;
