#N canvas 1313 -970 589 424 12;
#X obj 23 20 r beatSync;
#X obj 23 59 spigot;
#X obj 121 18 inlet;
#X obj 121 45 tgl 15 0 empty empty empty 17 7 0 10 -262144 -1 -1 1
1;
#X obj 110 104 random 8;
#X obj 31 119 route;
#X obj 92 74 sel 0;
#X obj 212 140 bng 15 250 50 0 empty empty empty 17 7 0 10 -262144
-1 -1;
#X obj 423 243 throw~ cutoff;
#X obj 31 153 bng 15 250 50 0 empty empty empty 17 7 0 10 -262144 -1
-1;
#X obj 214 115 sel 0;
#X obj 217 91 % 4;
#X obj 420 95 osc~;
#X obj 424 43 r bpm;
#X obj 424 66 / 60;
#X obj 424 128 *~ 400;
#X obj 424 153 +~ 1000;
#X obj 40 257 *;
#X obj 35 298 + 1000;
#X obj 209 174 random 200;
#X obj 209 35 route 0;
#X msg 238 60 0;
#X obj 251 82 s fmDepth;
#X obj 193 329 s fmRatio;
#X obj 21 345 s fmDepth;
#X obj 185 247 expr $f1 / 100 + 1;
#X obj 37 214 random 8000;
#X connect 0 0 1 0;
#X connect 1 0 6 0;
#X connect 1 0 5 0;
#X connect 1 0 11 0;
#X connect 2 0 3 0;
#X connect 2 0 20 0;
#X connect 3 0 1 1;
#X connect 4 0 5 1;
#X connect 5 0 9 0;
#X connect 6 0 4 0;
#X connect 7 0 19 0;
#X connect 9 0 26 0;
#X connect 10 0 7 0;
#X connect 11 0 10 0;
#X connect 12 0 15 0;
#X connect 13 0 14 0;
#X connect 14 0 12 0;
#X connect 15 0 16 0;
#X connect 16 0 8 0;
#X connect 17 0 18 0;
#X connect 18 0 24 0;
#X connect 19 0 25 0;
#X connect 20 0 21 0;
#X connect 21 0 22 0;
#X connect 25 0 23 0;
#X connect 26 0 17 0;
